#tb 0: 1001/30000
0,          0,          0,        1,    70560, 427421e5fd2087c6ff7b87a27982332f
0,          1,          1,        1,    70560, b68311fd44e189e4174ac357d5415068
0,          2,          2,        1,    70560, 2c822ff45be7a1ea412d21ff82c7bc1d
0,          3,          3,        1,    70560, 34659186d93516eae1dd4d9a391d1c3f
0,          4,          4,        1,    70560, 1990dd822abc3a10f511589db5aa50f4
0,          5,          5,        1,    70560, 4a4dc076172c79d9fde3e17b47109835
0,          6,          6,        1,    70560, 51874c79850120537fa5c405721d0107
0,          7,          7,        1,    70560, 15d7897a128de9be90be17f1679012c9
0,          8,          8,        1,    70560, a8d9480accf8585e94161a5f7c371cef
0,          9,          9,        1,    70560, 8a9d3f09561b895b423ae9428f620b9b
